<svg xmlns="http://www.w3.org/2000/svg" xmlns:xlink="http://www.w3.org/1999/xlink" width="32" height="32" viewBox="0 0 32 32">
  <defs>
    <clipPath id="clip-path">
      <rect id="Rectangle_91" data-name="Rectangle 91" width="32" height="32" transform="translate(-0.378)" fill="none" stroke="#707070" stroke-width="2"/>
    </clipPath>
  </defs>
  <g id="Group_180" data-name="Group 180" transform="translate(0.378)">
    <g id="Group_179" data-name="Group 179" transform="translate(0)" clip-path="url(#clip-path)">
      <path id="Path_283" data-name="Path 283" d="M7.111,2.64a1.764,1.764,0,0,1,3.528,0" transform="translate(6.541 0.862)" fill="none" stroke="#1d1d1b" stroke-linecap="round" stroke-linejoin="round" stroke-width="2"/>
      <path id="Path_284" data-name="Path 284" d="M6.673,14.279a2.9,2.9,0,0,0,5.262,0" transform="translate(6.111 14.042)" fill="none" stroke="#1d1d1b" stroke-linecap="round" stroke-linejoin="round" stroke-width="2"/>
      <line id="Line_179" data-name="Line 179" x1="21.585" y1="21.585" transform="translate(4.934 6.237)" fill="none" stroke="#1d1d1b" stroke-linecap="round" stroke-width="2"/>
      <path id="Path_285" data-name="Path 285" d="M21.825,20.59c-5.264,1.293-13.67,1.265-18.184-.389a1.808,1.808,0,0,1-1.053-2.424,5.551,5.551,0,0,1,.938-1.509,2.687,2.687,0,0,0,.635-1.8v-4.02A9.612,9.612,0,0,1,5.94,4.667" transform="translate(1.947 4.59)" fill="none" stroke="#1d1d1b" stroke-linecap="round" stroke-linejoin="round" stroke-width="2"/>
      <path id="Path_286" data-name="Path 286" d="M21.062,19.317a5.561,5.561,0,0,0-.837-1.293,2.715,2.715,0,0,1-.641-1.827v-3.6c0-5.841-3.729-9.7-9.3-9.7a10.007,10.007,0,0,0-4.6,1.047" transform="translate(5.135 2.84)" fill="none" stroke="#1d1d1b" stroke-linecap="round" stroke-linejoin="round" stroke-width="2"/>
    </g>
  </g>
</svg>
