<svg xmlns="http://www.w3.org/2000/svg" xmlns:xlink="http://www.w3.org/1999/xlink" width="158.548" height="42.103" viewBox="0 0 158.548 42.103">
  <defs>
    <clipPath id="clip-path">
      <path id="Path_269" data-name="Path 269" d="M48.763-26.436c0,.615-1.793,1.113-4,1.113s-4-.5-4-1.113" transform="translate(-40.76 26.436)" fill="none" stroke="#000" stroke-linecap="round" stroke-linejoin="round" stroke-width="3" clip-rule="evenodd"/>
    </clipPath>
  </defs>
  <g id="Group_288" data-name="Group 288" transform="translate(-1726.041 135.005)" opacity="0.8">
    <g id="Group_170" data-name="Group 170" transform="translate(1742.983 -104.412)" clip-path="url(#clip-path)">
      <path id="Path_267" data-name="Path 267" d="M88.733-28.407c2.209,0,4,.5,4,1.113s-1.793,1.113-4,1.113-4-.5-4-1.113S86.524-28.407,88.733-28.407Z" transform="translate(-59.896 27.294)" fill="none" stroke="#000" stroke-linecap="round" stroke-linejoin="round" stroke-width="3"/>
      <path id="Path_268" data-name="Path 268" d="M88.733-28.407c2.209,0,4,.5,4,1.113s-1.793,1.113-4,1.113-4-.5-4-1.113S86.524-28.407,88.733-28.407Z" transform="translate(-59.896 27.294)" fill="none" stroke="#000" stroke-linecap="round" stroke-linejoin="round" stroke-width="3"/>
    </g>
    <g id="Group_171" data-name="Group 171" transform="translate(1742.983 -104.412)" clip-path="url(#clip-path)">
      <path id="Path_270" data-name="Path 270" d="M88.733-28.407c2.209,0,4,.5,4,1.113s-1.793,1.113-4,1.113-4-.5-4-1.113S86.524-28.407,88.733-28.407Z" transform="translate(-59.896 27.294)" fill="none" stroke="#000" stroke-linecap="round" stroke-linejoin="round" stroke-width="3"/>
      <path id="Path_271" data-name="Path 271" d="M88.733-28.407c2.209,0,4,.5,4,1.113s-1.793,1.113-4,1.113-4-.5-4-1.113S86.524-28.407,88.733-28.407Z" transform="translate(-59.896 27.294)" fill="none" stroke="#000" stroke-linecap="round" stroke-linejoin="round" stroke-width="3"/>
    </g>
    <path id="Path_273" data-name="Path 273" d="M48.763-26.436c0,.615-1.793,1.113-4,1.113s-4-.5-4-1.113" transform="translate(1705.047 -77.976)" fill="none" stroke="#000" stroke-linecap="round" stroke-linejoin="round" stroke-width="3"/>
    <path id="Path_274" data-name="Path 274" d="M94.15-47.683c-3.367.16-6.519.639-9.673,4.543-1.6,1.985-3.348,7.139-.66,11.44s8.748,5.519,12.5,2.468c2.751-2.24,7.256-16.725,5.354-17.844-3.048-1.793-5.282,4.181-4.51,9.98.616,4.635,3.63,9.184,6.168,9.382" transform="translate(1686.916 -68.73)" fill="none" stroke="#000" stroke-linecap="round" stroke-linejoin="round" stroke-width="3"/>
    <path id="Path_275" data-name="Path 275" d="M44.232-42.587a36.4,36.4,0,0,1-10.684,3.326C19.919-37.174,10.955-44.25,9.175-51.6,8.011-56.413,7.548-64.7,15.3-71.6a25.857,25.857,0,0,1,14.393-6.16c6.177-.612,10.845-.25,14.271,2.393" transform="translate(1719.079 -55.53)" fill="none" stroke="#000" stroke-linecap="round" stroke-linejoin="round" stroke-width="3"/>
    <path id="Path_276" data-name="Path 276" d="M128.958-43.8a39.825,39.825,0,0,0,6.148-10.735c2.437-6.086,1.432-20.581.679-22.839s-4.136,16.846-4.727,23.183c-.46,4.94-.2,11.925,1.379,13.86s5.424.232,8.084-2.251" transform="translate(1666.663 -55.516)" fill="none" stroke="#000" stroke-linecap="round" stroke-linejoin="round" stroke-width="3"/>
    <path id="Path_277" data-name="Path 277" d="M157.358-36.448c.921-2.1,2.619-7.808,2.619-7.808l.538,19.074s.43-11.989,1.183-14.839c.343-1.3,2.283-2,3.466-1.95,2.129.086,3.059.6,3.631,1.95,1.219,2.867,2.025,12.844,2.546,14.946.3,1.227.341-3.777.341-3.777s.281-9.414,1.2-11.6a5.014,5.014,0,0,1,4-2.5,4.242,4.242,0,0,1,3.523,2.5c.8,2.4,2.069,15.323,3.616,14.19" transform="translate(1654.304 -70.221)" fill="none" stroke="#000" stroke-linecap="round" stroke-linejoin="round" stroke-width="3"/>
    <path id="Path_278" data-name="Path 278" d="M211.7-33.061s10.764-4.038,12.615-6.511c1.686-2.254.608-5.22-.816-6.472a7.881,7.881,0,0,0-6.02-1.992,6.947,6.947,0,0,0-5.779,3.563c-1.592,2.432-4.553,13.575,2.948,15.272s10.958-2.319,11.724-2.975" transform="translate(1633.189 -67.219)" fill="none" stroke="#000" stroke-linecap="round" stroke-linejoin="round" stroke-width="3"/>
    <path id="Path_279" data-name="Path 279" d="M249.951-36.012c.84-7.779,7.312-8.486,7.312-8.486s-5.061.825-6.531,5.3c-.932,2.839-1.581,8.982,1.56,11.8,3.746,3.363,7.764,2.494,10.3,1.472,3.749-1.51,5.038-3.471,5.856-5.964,1.408-4.293.347-7.939-1.134-9.7A9.764,9.764,0,0,0,257.263-44.5" transform="translate(1613.867 -70.41)" fill="none" stroke="#000" stroke-linecap="round" stroke-linejoin="round" stroke-width="3"/>
  </g>
</svg>
