<svg xmlns="http://www.w3.org/2000/svg" width="213.836" height="268.33" viewBox="0 0 213.836 268.33">
  <g id="focus_icon_large" transform="translate(-3215.176 400.227)">
    <g id="Notebook">
      <path id="Path_1" data-name="Path 1" d="M154.55,70.759l43.81,80.555a15.11,15.11,0,0,1-6.019,20.5L97.309,223.539a15.047,15.047,0,0,1-20.59-5.924L5.287,86.186a15.078,15.078,0,0,1,6.177-20.463L106.5,13.962a15.142,15.142,0,0,1,20.5,6.05L132.6,30.719" transform="translate(3226.761 -371.387)" fill="none" stroke="#000" stroke-linecap="round" stroke-miterlimit="10" stroke-width="4"/>
      <path id="Path_2" data-name="Path 2" d="M78.258,69.753,38.693,91.388a7.191,7.191,0,0,1-9.725-2.883L15.917,64.526a7.222,7.222,0,0,1,2.851-9.757L75.09,24.233a7.159,7.159,0,0,1,9.725,2.851l7.539,14.16" transform="translate(3251.831 -347.066)" fill="none" stroke="#000" stroke-linecap="round" stroke-miterlimit="10" stroke-width="4"/>
      <path id="Path_3" data-name="Path 3" d="M195.456,125.209l-95.032,51.729a15.047,15.047,0,0,1-20.59-5.924L8.4,39.585A14.7,14.7,0,0,1,6.627,33.63,15.078,15.078,0,0,0,3.872,51.654L75.3,182.957a15.078,15.078,0,0,0,20.464,6.05L190.8,137.246a15.078,15.078,0,0,0,7.824-14.508A16,16,0,0,1,195.456,125.209Z" transform="translate(3223.646 -324.786)" fill="none" stroke="#000" stroke-linecap="round" stroke-miterlimit="10" stroke-width="4"/>
      <path id="Path_5" data-name="Path 5" d="M5.353,58.906c-3.58-6.335-.38-13.748,7.159-16.726" transform="translate(3227.645 -306.252)" fill="none" stroke="#000" stroke-linecap="round" stroke-miterlimit="10" stroke-width="4"/>
      <path id="Path_6" data-name="Path 6" d="M17.887,43.235c-1.33-2.091-6.335-2.059-11.277,0" transform="translate(3233.547 -307.339)" fill="none" stroke="#000" stroke-linecap="round" stroke-miterlimit="10" stroke-width="4"/>
      <path id="Path_7" data-name="Path 7" d="M12,71.424c-3.58-6.335-.38-13.716,7.127-16.694" transform="translate(3242.06 -279.047)" fill="none" stroke="#000" stroke-linecap="round" stroke-miterlimit="10" stroke-width="4"/>
      <path id="Path_8" data-name="Path 8" d="M24.589,55.745c-1.33-2.091-6.335-2.059-11.309,0" transform="translate(3248.006 -280.221)" fill="none" stroke="#000" stroke-linecap="round" stroke-miterlimit="10" stroke-width="4"/>
      <path id="Path_9" data-name="Path 9" d="M19.214,84.674c-3.548-6.335-.38-13.748,7.159-16.694" transform="translate(3257.72 -250.325)" fill="none" stroke="#000" stroke-linecap="round" stroke-miterlimit="10" stroke-width="4"/>
      <path id="Path_10" data-name="Path 10" d="M31.789,69.057C30.427,67,25.453,67,20.48,69.057" transform="translate(3263.613 -251.338)" fill="none" stroke="#000" stroke-linecap="round" stroke-miterlimit="10" stroke-width="4"/>
      <line id="Line_1" data-name="Line 1" y1="19.988" x2="36.746" transform="translate(3278.677 -304.778)" fill="none" stroke="#000" stroke-linecap="round" stroke-miterlimit="10" stroke-width="4"/>
      <line id="Line_2" data-name="Line 2" y1="15.902" x2="29.238" transform="translate(3282.763 -293.152)" fill="none" stroke="#000" stroke-linecap="round" stroke-miterlimit="10" stroke-width="4"/>
      <path id="Path_24" data-name="Path 24" d="M15.639,53.132A11.594,11.594,0,0,1,4.33,47.43" transform="translate(3228.604 -294.872)" fill="none" stroke="#000" stroke-linecap="round" stroke-miterlimit="10" stroke-width="4"/>
      <path id="Path_25" data-name="Path 25" d="M22.309,65.632A11.5,11.5,0,0,1,11,59.93" transform="translate(3243.063 -267.775)" fill="none" stroke="#000" stroke-linecap="round" stroke-miterlimit="10" stroke-width="4"/>
      <path id="Path_26" data-name="Path 26" d="M29.487,78.9A11.531,11.531,0,0,1,18.21,73.2" transform="translate(3258.693 -239.01)" fill="none" stroke="#000" stroke-linecap="round" stroke-miterlimit="10" stroke-width="4"/>
    </g>
    <g id="Pencil">
      <line id="Line_3" data-name="Line 3" x1="45.013" y2="91.452" transform="translate(3331.863 -361.353)" fill="none" stroke="#000" stroke-linecap="round" stroke-linejoin="round" stroke-width="4"/>
      <line id="Line_4" data-name="Line 4" x1="3.263" y2="33.768" transform="translate(3328.6 -269.901)" fill="none" stroke="#000" stroke-linecap="round" stroke-linejoin="round" stroke-width="4"/>
      <line id="Line_5" data-name="Line 5" x1="24.772" y2="23.156" transform="translate(3328.6 -259.289)" fill="none" stroke="#000" stroke-linecap="round" stroke-linejoin="round" stroke-width="4"/>
      <path id="Path_11" data-name="Path 11" d="M87.385,14.82l-3.516,7.159-2.6,5.258L52.413,85.84l-4.34,8.775L42.34,106.272" transform="translate(3311 -365.561)" fill="none" stroke="#000" stroke-linecap="round" stroke-linejoin="round" stroke-width="4"/>
      <line id="Line_6" data-name="Line 6" x1="25.849" y2="52.489" transform="translate(3342.601 -317.1)" fill="none" stroke="#000" stroke-linecap="round" stroke-linejoin="round" stroke-width="4"/>
      <line id="Line_7" data-name="Line 7" x1="6.24" y2="12.703" transform="translate(3373.296 -339.623)" fill="none" stroke="#000" stroke-linecap="round" stroke-linejoin="round" stroke-width="4"/>
      <line id="Line_8" data-name="Line 8" x1="3.453" y2="6.969" transform="translate(3384.193 -356.031)" fill="none" stroke="#000" stroke-linecap="round" stroke-linejoin="round" stroke-width="4"/>
      <path id="Path_12" data-name="Path 12" d="M34.76,48.64a3.738,3.738,0,0,0,4.752,2.344" transform="translate(3294.568 -292.249)" fill="none" stroke="#000" stroke-linecap="round" stroke-linejoin="round" stroke-width="4"/>
      <path id="Path_13" data-name="Path 13" d="M39,42.959a8.68,8.68,0,0,1,7.191-1.045c1.52.76,2.756,2.344,3.168,6.335" transform="translate(3303.76 -307.602)" fill="none" stroke="#000" stroke-linecap="round" stroke-linejoin="round" stroke-width="4"/>
      <path id="Path_14" data-name="Path 14" d="M35.62,41.39a8.68,8.68,0,0,1,7.191-1.172c1.521.76,2.756,2.344,3.168,6.145" transform="translate(3296.433 -311.196)" fill="none" stroke="#000" stroke-linecap="round" stroke-linejoin="round" stroke-width="4"/>
      <rect id="Rectangle_1" data-name="Rectangle 1" width="26.514" height="7.444" transform="matrix(0.897, 0.442, -0.442, 0.897, 3379.308, -369.102)" fill="none" stroke="#000" stroke-linecap="round" stroke-linejoin="round" stroke-width="4"/>
      <rect id="Rectangle_2" data-name="Rectangle 2" width="26.514" height="12.227" transform="matrix(0.897, 0.442, -0.442, 0.897, 3381.406, -373.43)" fill="none" stroke="#000" stroke-linecap="round" stroke-linejoin="round" stroke-width="4"/>
      <rect id="Rectangle_3" data-name="Rectangle 3" width="26.514" height="19.798" transform="matrix(0.897, 0.442, -0.442, 0.897, 3384.744, -380.187)" fill="none" stroke="#000" stroke-linecap="round" stroke-linejoin="round" stroke-width="4"/>
      <path id="Path_15" data-name="Path 15" d="M4.213,0H20.368a4.213,4.213,0,0,1,4.213,4.213V19.8H0V4.213A4.213,4.213,0,0,1,4.213,0Z" transform="matrix(0.897, 0.442, -0.442, 0.897, 3394.354, -397.549)" fill="none" stroke="#000" stroke-linecap="round" stroke-linejoin="round" stroke-width="4"/>
    </g>
    <g id="Pin">
      <line id="Line_9" data-name="Line 9" y1="14.223" x2="6.842" transform="translate(3225.966 -357.52)" fill="none" stroke="#000" stroke-linecap="round" stroke-linejoin="round" stroke-width="4"/>
      <ellipse id="Ellipse_1" data-name="Ellipse 1" cx="7.508" cy="13.368" rx="7.508" ry="13.368" transform="translate(3217.867 -357.512) rotate(-62.96)" fill="none" stroke="#000" stroke-linecap="round" stroke-miterlimit="10" stroke-width="4"/>
      <path id="Path_16" data-name="Path 16" d="M7.825,13.927C4.848,11.2,3.517,8,4.657,5.691c1.647-3.168,7.7-3.484,13.495-.539s9.155,7.983,7.476,11.245c-1.2,2.281-4.593,3.168-8.521,2.281" transform="translate(3228.435 -390.929)" fill="none" stroke="#000" stroke-linecap="round" stroke-miterlimit="10" stroke-width="4"/>
      <path id="Path_17" data-name="Path 17" d="M6.23,5.667c.729-1.457,3.421-1.552,5.987-.253s4.055,3.548,3.326,5.005" transform="translate(3232.723 -387.927)" fill="none" stroke="#000" stroke-linecap="round" stroke-miterlimit="10" stroke-width="4"/>
      <line id="Line_10" data-name="Line 10" x1="7.571" y2="14.793" transform="translate(3231.382 -382.26)" fill="none" stroke="#000" stroke-linecap="round" stroke-miterlimit="10" stroke-width="4"/>
      <line id="Line_11" data-name="Line 11" x1="7.571" y2="14.793" transform="translate(3240.696 -377.509)" fill="none" stroke="#000" stroke-linecap="round" stroke-miterlimit="10" stroke-width="4"/>
      <line id="Line_12" data-name="Line 12" x1="7.571" y2="14.793" transform="translate(3231.382 -382.26)" fill="none" stroke="#000" stroke-linecap="round" stroke-miterlimit="10" stroke-width="4"/>
    </g>
    <g id="Paperclip">
      <line id="Line_13" data-name="Line 13" x2="23.726" y2="17.803" transform="translate(3369.432 -241.391)" fill="none" stroke="#000" stroke-linecap="round" stroke-miterlimit="10" stroke-width="4"/>
      <line id="Line_14" data-name="Line 14" x2="18.658" y2="14.001" transform="translate(3366.137 -226.471)" fill="none" stroke="#000" stroke-linecap="round" stroke-miterlimit="10" stroke-width="4"/>
      <line id="Line_15" data-name="Line 15" x2="23.695" y2="17.803" transform="translate(3372.029 -233.662)" fill="none" stroke="#000" stroke-linecap="round" stroke-miterlimit="10" stroke-width="4"/>
      <line id="Line_16" data-name="Line 16" x2="29.935" y2="22.491" transform="translate(3358.155 -227.073)" fill="none" stroke="#000" stroke-linecap="round" stroke-miterlimit="10" stroke-width="4"/>
      <path id="Path_18" data-name="Path 18" d="M56.011,50.5A9.123,9.123,0,0,0,43.34,52.306" transform="translate(3313.167 -292.082)" fill="none" stroke="#000" stroke-linecap="round" stroke-miterlimit="10" stroke-width="4"/>
      <path id="Path_19" data-name="Path 19" d="M46.352,62.551A9.155,9.155,0,0,1,44.514,49.88" transform="translate(3311.898 -289.561)" fill="none" stroke="#000" stroke-linecap="round" stroke-miterlimit="10" stroke-width="4"/>
      <path id="Path_20" data-name="Path 20" d="M55.66,57.36a6.779,6.779,0,0,1,1.362,9.5" transform="translate(3339.874 -273.346)" fill="none" stroke="#000" stroke-linecap="round" stroke-miterlimit="10" stroke-width="4"/>
      <path id="Path_21" data-name="Path 21" d="M53.08,61.722a6.811,6.811,0,0,0,9.5-1.362" transform="translate(3334.281 -266.843)" fill="none" stroke="#000" stroke-linecap="round" stroke-miterlimit="10" stroke-width="4"/>
      <path id="Path_22" data-name="Path 22" d="M52.544,52.312a4.657,4.657,0,0,0-6.494.919" transform="translate(3319.042 -286.291)" fill="none" stroke="#000" stroke-linecap="round" stroke-miterlimit="10" stroke-width="4"/>
      <path id="Path_23" data-name="Path 23" d="M47.551,58.335A4.657,4.657,0,0,1,46.632,52" transform="translate(3318.46 -284.965)" fill="none" stroke="#000" stroke-linecap="round" stroke-miterlimit="10" stroke-width="4"/>
    </g>
  </g>
</svg>
