<svg xmlns="http://www.w3.org/2000/svg" width="62.073" height="78.832" viewBox="0 0 62.073 78.832">
  <g id="mini_focus_icon" transform="translate(-69.036 -316.539)">
    <g id="Notebook" transform="translate(70.164 327.273)">
      <path id="Path_117" data-name="Path 117" d="M116.189,339.122l12.585,23.05a4.494,4.494,0,0,1-1.8,6.1L98.647,383.676a4.5,4.5,0,0,1-6.1-1.8l-21.267-39.1a4.5,4.5,0,0,1,1.8-6.1l28.328-15.408a4.492,4.492,0,0,1,6.094,1.8l1.349,2.6" transform="translate(-69.391 -320.729)" fill="none" stroke="#000" stroke-linecap="round" stroke-miterlimit="10" stroke-width="2"/>
      <path id="Path_118" data-name="Path 118" d="M92.412,340.113l-9.986,5.375a2.135,2.135,0,0,1-2.9-.855l-3.888-7.144a2.138,2.138,0,0,1,.857-2.9l16.728-9.1a2.136,2.136,0,0,1,2.9.857l1.7,3.157" transform="translate(-63.123 -314.653)" fill="none" stroke="#000" stroke-linecap="round" stroke-miterlimit="10" stroke-width="2"/>
      <path id="Path_119" data-name="Path 119" d="M127.746,356.625,99.42,372.033a4.5,4.5,0,0,1-6.1-1.8l-21.267-39.1a4.449,4.449,0,0,1-.529-1.778,4.492,4.492,0,0,0-.82,5.368l21.269,39.1a4.492,4.492,0,0,0,6.094,1.8L126.4,360.214a4.494,4.494,0,0,0,2.328-4.318A4.426,4.426,0,0,1,127.746,356.625Z" transform="translate(-70.164 -309.086)" fill="none" stroke="#000" stroke-linecap="round" stroke-miterlimit="10" stroke-width="2"/>
      <path id="Path_120" data-name="Path 120" d="M71.341,337.769c-1.064-1.863-.113-4.09,2.126-4.975" transform="translate(-69.163 -304.452)" fill="none" stroke="#000" stroke-linecap="round" stroke-miterlimit="10" stroke-width="2"/>
      <path id="Path_121" data-name="Path 121" d="M75.36,333.055c-.4-.62-1.9-.615-3.364.009" transform="translate(-67.692 -304.723)" fill="none" stroke="#000" stroke-linecap="round" stroke-miterlimit="10" stroke-width="2"/>
      <path id="Path_122" data-name="Path 122" d="M74.022,342.789c-1.064-1.863-.113-4.088,2.126-4.973" transform="translate(-65.546 -297.677)" fill="none" stroke="#000" stroke-linecap="round" stroke-miterlimit="10" stroke-width="2"/>
      <path id="Path_123" data-name="Path 123" d="M78.041,338.076c-.4-.62-1.9-.615-3.364.012" transform="translate(-64.075 -297.949)" fill="none" stroke="#000" stroke-linecap="round" stroke-miterlimit="10" stroke-width="2"/>
      <path id="Path_124" data-name="Path 124" d="M76.91,348.125c-1.064-1.865-.113-4.09,2.128-4.975" transform="translate(-61.65 -290.48)" fill="none" stroke="#000" stroke-linecap="round" stroke-miterlimit="10" stroke-width="2"/>
      <path id="Path_125" data-name="Path 125" d="M80.93,343.41c-.4-.62-1.905-.613-3.364.012" transform="translate(-60.177 -290.752)" fill="none" stroke="#000" stroke-linecap="round" stroke-miterlimit="10" stroke-width="2"/>
      <line id="Line_109" data-name="Line 109" y1="5.952" x2="10.941" transform="translate(15.772 16.215)" fill="none" stroke="#000" stroke-linecap="round" stroke-miterlimit="10" stroke-width="2"/>
      <line id="Line_110" data-name="Line 110" y1="4.736" x2="8.707" transform="translate(16.994 19.678)" fill="none" stroke="#000" stroke-linecap="round" stroke-miterlimit="10" stroke-width="2"/>
      <path id="Path_126" data-name="Path 126" d="M74.443,336.6a3.427,3.427,0,0,1-3.359-1.7" transform="translate(-68.922 -301.611)" fill="none" stroke="#000" stroke-linecap="round" stroke-miterlimit="10" stroke-width="2"/>
      <path id="Path_127" data-name="Path 127" d="M77.122,341.617a3.433,3.433,0,0,1-3.359-1.7" transform="translate(-65.308 -294.837)" fill="none" stroke="#000" stroke-linecap="round" stroke-miterlimit="10" stroke-width="2"/>
      <path id="Path_128" data-name="Path 128" d="M80.015,346.955a3.427,3.427,0,0,1-3.359-1.7" transform="translate(-61.405 -287.635)" fill="none" stroke="#000" stroke-linecap="round" stroke-miterlimit="10" stroke-width="2"/>
    </g>
    <path id="Path_111" data-name="Path 111" d="M85.866,328.748" transform="translate(21.184 17.363)" fill="none" stroke="#000" stroke-linecap="round" stroke-miterlimit="10" stroke-width="2"/>
    <path id="Path_112" data-name="Path 112" d="M85.5,329.981" transform="translate(20.693 19.027)" fill="none" stroke="#000" stroke-linecap="round" stroke-miterlimit="10" stroke-width="2"/>
    <g id="Pencil" transform="translate(100.13 317.878)">
      <line id="Line_103" data-name="Line 103" x1="13.408" y2="27.227" transform="translate(0.971 10.775)" fill="none" stroke="#000" stroke-linecap="round" stroke-linejoin="round" stroke-width="2"/>
      <line id="Line_104" data-name="Line 104" x1="0.971" y2="10.049" transform="translate(0 38.003)" fill="none" stroke="#000" stroke-linecap="round" stroke-linejoin="round" stroke-width="2"/>
      <line id="Line_105" data-name="Line 105" x1="7.373" y2="6.896" transform="translate(0 41.156)" fill="none" stroke="#000" stroke-linecap="round" stroke-linejoin="round" stroke-width="2"/>
      <path id="Path_113" data-name="Path 113" d="M99.753,321.807,98.7,323.942l-.769,1.561-8.594,17.452-1.287,2.614-1.706,3.465" transform="translate(-78.972 -307.879)" fill="none" stroke="#000" stroke-linecap="round" stroke-linejoin="round" stroke-width="2"/>
      <line id="Line_106" data-name="Line 106" x1="7.698" y2="15.632" transform="translate(4.172 23.947)" fill="none" stroke="#000" stroke-linecap="round" stroke-linejoin="round" stroke-width="2"/>
      <line id="Line_107" data-name="Line 107" x1="1.859" y2="3.774" transform="translate(13.312 17.244)" fill="none" stroke="#000" stroke-linecap="round" stroke-linejoin="round" stroke-width="2"/>
      <line id="Line_108" data-name="Line 108" x1="1.024" y2="2.079" transform="translate(16.556 12.352)" fill="none" stroke="#000" stroke-linecap="round" stroke-linejoin="round" stroke-width="2"/>
      <path id="Path_114" data-name="Path 114" d="M83.3,335.388a1.113,1.113,0,0,0,1.414.7" transform="translate(-83.083 -289.557)" fill="none" stroke="#000" stroke-linecap="round" stroke-linejoin="round" stroke-width="2"/>
      <path id="Path_115" data-name="Path 115" d="M84.982,332.989a2.573,2.573,0,0,1,2.142-.312c.456.223.822.7.947,1.832" transform="translate(-80.811 -293.409)" fill="none" stroke="#000" stroke-linecap="round" stroke-linejoin="round" stroke-width="2"/>
      <path id="Path_116" data-name="Path 116" d="M83.644,332.328a2.573,2.573,0,0,1,2.142-.31c.453.223.82.7.944,1.832" transform="translate(-82.616 -294.298)" fill="none" stroke="#000" stroke-linecap="round" stroke-linejoin="round" stroke-width="2"/>
      <rect id="Rectangle_49" data-name="Rectangle 49" width="7.894" height="2.947" transform="translate(15.421 7.803) rotate(26.218)" fill="none" stroke="#000" stroke-linecap="round" stroke-linejoin="round" stroke-width="2"/>
      <rect id="Rectangle_51" data-name="Rectangle 51" width="7.894" height="5.893" transform="translate(16.722 5.16) rotate(26.218)" fill="none" stroke="#000" stroke-linecap="round" stroke-linejoin="round" stroke-width="2"/>
      <path id="Rectangle_52" data-name="Rectangle 52" d="M.533,0H6.784a.533.533,0,0,1,.533.533v5.36a0,0,0,0,1,0,0H0a0,0,0,0,1,0,0V.533A.533.533,0,0,1,.533,0Z" transform="translate(19.585 0) rotate(26.218)" fill="none" stroke="#000" stroke-linecap="round" stroke-linejoin="round" stroke-width="2"/>
    </g>
  </g>
</svg>
