<svg xmlns="http://www.w3.org/2000/svg" width="100" height="100" viewBox="0 0 100 100">
  <g id="Group_167" data-name="Group 167" transform="translate(-3893 298)">
    <rect id="Rectangle_89" data-name="Rectangle 89" width="100" height="100" transform="translate(3893 -298)" fill="none"/>
    <g id="Ellipse_62" data-name="Ellipse 62" transform="translate(3935.622 -296.748)" fill="none" stroke="#000" stroke-width="2">
      <circle cx="7.097" cy="7.097" r="7.097" stroke="none"/>
      <circle cx="7.097" cy="7.097" r="6.097" fill="none"/>
    </g>
    <g id="Ellipse_63" data-name="Ellipse 63" transform="translate(3959.744 -289.193)" fill="none" stroke="#000" stroke-width="2">
      <circle cx="7.514" cy="7.514" r="7.514" stroke="none"/>
      <circle cx="7.514" cy="7.514" r="6.514" fill="none"/>
    </g>
    <g id="Ellipse_61" data-name="Ellipse 61" transform="translate(3974.495 -268.737)" fill="none" stroke="#000" stroke-width="2">
      <circle cx="7.932" cy="7.932" r="7.932" stroke="none"/>
      <circle cx="7.932" cy="7.932" r="6.932" fill="none"/>
    </g>
    <g id="Ellipse_60" data-name="Ellipse 60" transform="translate(3974.074 -243.355)" fill="none" stroke="#000" stroke-width="2">
      <circle cx="8.349" cy="8.349" r="8.349" stroke="none"/>
      <circle cx="8.349" cy="8.349" r="7.349" fill="none"/>
    </g>
    <g id="Ellipse_64" data-name="Ellipse 64" transform="translate(3912.67 -219.561)" fill="none" stroke="#000" stroke-width="2">
      <circle cx="5.427" cy="5.427" r="5.427" stroke="none"/>
      <circle cx="5.427" cy="5.427" r="4.427" fill="none"/>
    </g>
    <g id="Ellipse_66" data-name="Ellipse 66" transform="translate(3897.175 -240.85)" fill="none" stroke="#000" stroke-width="2">
      <circle cx="5.844" cy="5.844" r="5.844" stroke="none"/>
      <circle cx="5.844" cy="5.844" r="4.844" fill="none"/>
    </g>
    <g id="Ellipse_67" data-name="Ellipse 67" transform="translate(3896.757 -267.067)" fill="none" stroke="#000" stroke-width="2">
      <circle cx="6.262" cy="6.262" r="6.262" stroke="none"/>
      <circle cx="6.262" cy="6.262" r="5.262" fill="none"/>
    </g>
    <g id="Ellipse_65" data-name="Ellipse 65" transform="translate(3911.505 -288.358)" fill="none" stroke="#000" stroke-width="2">
      <circle cx="6.679" cy="6.679" r="6.679" stroke="none"/>
      <circle cx="6.679" cy="6.679" r="5.679" fill="none"/>
    </g>
  </g>
</svg>
