<svg xmlns="http://www.w3.org/2000/svg" width="21.498" height="24" viewBox="0 0 21.498 24">
  <g id="pause_icon" transform="translate(-4943.836 348.953)">
    <path id="right" d="M3.387,0h.725C5.982,0,7.5,1.825,7.5,4.076V17.924C7.5,20.175,5.982,22,4.111,22H3.387C1.516,22,0,20.175,0,17.924V4.076C0,1.825,1.516,0,3.387,0Z" transform="translate(4956.836 -347.953)" fill="none" stroke="#000" stroke-width="2"/>
    <path id="left" d="M3.387,0h.725C5.982,0,7.5,1.825,7.5,4.076V17.924C7.5,20.175,5.982,22,4.111,22H3.387C1.516,22,0,20.175,0,17.924V4.076C0,1.825,1.516,0,3.387,0Z" transform="translate(4944.836 -347.953)" fill="none" stroke="#000" stroke-width="2"/>
  </g>
</svg>
