<svg xmlns="http://www.w3.org/2000/svg" width="20.112" height="21.591" viewBox="0 0 20.112 21.591">
  <g id="pause_icon" transform="translate(-9964.663 -5126.071)">
    <g id="stop_icon" transform="translate(9964.663 5126.071)" fill="none">
      <path d="M4,0h.856a4,4,0,0,1,4,4V17.591a4,4,0,0,1-4,4H4a4,4,0,0,1-4-4V4A4,4,0,0,1,4,0Z" stroke="none"/>
      <path d="M 3.999998569488525 2.000003814697266 C 2.897198677062988 2.000003814697266 1.999998569488525 2.89720344543457 1.999998569488525 4.000003814697266 L 1.999998569488525 17.59130477905273 C 1.999998569488525 18.6941032409668 2.897198677062988 19.59130477905273 3.999998569488525 19.59130477905273 L 4.855958461761475 19.59130477905273 C 5.958758354187012 19.59130477905273 6.855958461761475 18.6941032409668 6.855958461761475 17.59130477905273 L 6.855958461761475 4.000003814697266 C 6.855958461761475 2.89720344543457 5.958758354187012 2.000003814697266 4.855958461761475 2.000003814697266 L 3.999998569488525 2.000003814697266 M 3.999998569488525 3.814697265625e-06 L 4.855958461761475 3.814697265625e-06 C 7.065098762512207 3.814697265625e-06 8.855958938598633 1.790864944458008 8.855958938598633 4.000003814697266 L 8.855958938598633 17.59130477905273 C 8.855958938598633 19.80044364929199 7.065098762512207 21.59130477905273 4.855958461761475 21.59130477905273 L 3.999998569488525 21.59130477905273 C 1.790858745574951 21.59130477905273 -1.9073486328125e-06 19.80044364929199 -1.9073486328125e-06 17.59130477905273 L -1.9073486328125e-06 4.000003814697266 C -1.9073486328125e-06 1.790864944458008 1.790858745574951 3.814697265625e-06 3.999998569488525 3.814697265625e-06 Z" stroke="none" fill="#000"/>
    </g>
    <g id="stop_icon-2" data-name="stop_icon" transform="translate(9975.919 5126.071)" fill="none">
      <path d="M4,0h.856a4,4,0,0,1,4,4V17.591a4,4,0,0,1-4,4H4a4,4,0,0,1-4-4V4A4,4,0,0,1,4,0Z" stroke="none"/>
      <path d="M 3.999998569488525 2.000003814697266 C 2.897198677062988 2.000003814697266 1.999998569488525 2.89720344543457 1.999998569488525 4.000003814697266 L 1.999998569488525 17.59130477905273 C 1.999998569488525 18.6941032409668 2.897198677062988 19.59130477905273 3.999998569488525 19.59130477905273 L 4.855958461761475 19.59130477905273 C 5.958758354187012 19.59130477905273 6.855958461761475 18.6941032409668 6.855958461761475 17.59130477905273 L 6.855958461761475 4.000003814697266 C 6.855958461761475 2.89720344543457 5.958758354187012 2.000003814697266 4.855958461761475 2.000003814697266 L 3.999998569488525 2.000003814697266 M 3.999998569488525 3.814697265625e-06 L 4.855958461761475 3.814697265625e-06 C 7.065098762512207 3.814697265625e-06 8.855958938598633 1.790864944458008 8.855958938598633 4.000003814697266 L 8.855958938598633 17.59130477905273 C 8.855958938598633 19.80044364929199 7.065098762512207 21.59130477905273 4.855958461761475 21.59130477905273 L 3.999998569488525 21.59130477905273 C 1.790858745574951 21.59130477905273 -1.9073486328125e-06 19.80044364929199 -1.9073486328125e-06 17.59130477905273 L -1.9073486328125e-06 4.000003814697266 C -1.9073486328125e-06 1.790864944458008 1.790858745574951 3.814697265625e-06 3.999998569488525 3.814697265625e-06 Z" stroke="none" fill="#000"/>
    </g>
  </g>
</svg>
