<svg xmlns="http://www.w3.org/2000/svg" width="24.291" height="27.236" viewBox="0 0 24.291 27.236">
  <g id="play_icon" transform="translate(24.291) rotate(90)" fill="none">
    <path d="M10.129,6.224a4,4,0,0,1,6.978,0L23.9,18.335a4,4,0,0,1-3.489,5.956H6.828a4,4,0,0,1-3.489-5.956Z" stroke="none"/>
    <path d="M 13.61782932281494 6.179847717285156 C 13.26555919647217 6.179847717285156 12.39037895202637 6.279426574707031 11.87326908111572 7.201837539672852 L 5.083549499511719 19.31319808959961 C 4.577629089355469 20.21564674377441 4.92820930480957 21.00475692749023 5.102418899536133 21.30213737487793 C 5.276628494262695 21.59952735900879 5.793519973754883 22.29120635986328 6.828109741210938 22.29120635986328 L 20.40754890441895 22.29120635986328 C 21.442138671875 22.29120635986328 21.95903015136719 21.59952735900879 22.13323974609375 21.30213737487793 C 22.30744934082031 21.00475692749023 22.65802955627441 20.21564674377441 22.15210914611816 19.31319808959961 L 15.36238956451416 7.201837539672852 C 14.84527969360352 6.279426574707031 13.97009944915771 6.179847717285156 13.61782932281494 6.179847717285156 M 13.61782932281494 4.179851531982422 C 14.98043441772461 4.179851531982422 16.34304046630859 4.861177444458008 17.10694885253906 6.223827362060547 L 23.89666938781738 18.33518600463867 C 25.39143943786621 21.00152587890625 23.46430015563965 24.29120635986328 20.40754890441895 24.29120635986328 L 6.828109741210938 24.29120635986328 C 3.771358489990234 24.29120635986328 1.844219207763672 21.00152587890625 3.3389892578125 18.33518600463867 L 10.12870979309082 6.223827362060547 C 10.89262008666992 4.861177444458008 12.25522422790527 4.179851531982422 13.61782932281494 4.179851531982422 Z" stroke="none" fill="#000"/>
  </g>
</svg>
