<svg xmlns="http://www.w3.org/2000/svg" width="309.084" height="336.009" viewBox="0 0 309.084 336.009">
  <g id="relax_icon_large" transform="translate(-2761.828 454.551)">
    <g id="stones">
      <ellipse id="Ellipse_2" data-name="Ellipse 2" cx="49.226" cy="21.414" rx="49.226" ry="21.414" transform="translate(2928.487 -163.369)" fill="none" stroke="#000" stroke-linecap="round" stroke-miterlimit="10" stroke-width="4"/>
      <ellipse id="Ellipse_3" data-name="Ellipse 3" cx="36.049" cy="15.744" rx="36.049" ry="15.744" transform="translate(2941.664 -194.856)" fill="none" stroke="#000" stroke-linecap="round" stroke-miterlimit="10" stroke-width="4"/>
      <ellipse id="Ellipse_4" data-name="Ellipse 4" cx="27.052" cy="12.196" rx="27.052" ry="12.196" transform="translate(2950.661 -219.279)" fill="none" stroke="#000" stroke-linecap="round" stroke-miterlimit="10" stroke-width="4"/>
      <ellipse id="Ellipse_5" data-name="Ellipse 5" cx="16.631" cy="10.517" rx="16.631" ry="10.517" transform="translate(2961.083 -240.313)" fill="none" stroke="#000" stroke-linecap="round" stroke-miterlimit="10" stroke-width="4"/>
    </g>
    <g id="sun">
      <ellipse id="Ellipse_6" data-name="Ellipse 6" cx="40.674" cy="40.674" rx="40.674" ry="40.674" transform="translate(2960.005 -424.991)" fill="none" stroke="#000" stroke-linecap="round" stroke-linejoin="round" stroke-width="4"/>
      <line id="Line_28" data-name="Line 28" y2="14.508" transform="translate(3000.679 -452.551)" fill="none" stroke="#000" stroke-linecap="round" stroke-linejoin="round" stroke-width="4"/>
      <line id="Line_29" data-name="Line 29" y2="14.508" transform="translate(3000.679 -330.593)" fill="none" stroke="#000" stroke-linecap="round" stroke-linejoin="round" stroke-width="4"/>
      <line id="Line_30" data-name="Line 30" x2="14.508" transform="translate(2932.446 -384.318)" fill="none" stroke="#000" stroke-linecap="round" stroke-linejoin="round" stroke-width="4"/>
      <line id="Line_31" data-name="Line 31" x2="14.508" transform="translate(3054.404 -384.318)" fill="none" stroke="#000" stroke-linecap="round" stroke-linejoin="round" stroke-width="4"/>
      <line id="Line_32" data-name="Line 32" x2="7.254" y2="12.544" transform="translate(2966.563 -443.396)" fill="none" stroke="#000" stroke-linecap="round" stroke-linejoin="round" stroke-width="4"/>
      <line id="Line_33" data-name="Line 33" x2="7.254" y2="12.576" transform="translate(3027.541 -337.784)" fill="none" stroke="#000" stroke-linecap="round" stroke-linejoin="round" stroke-width="4"/>
      <line id="Line_34" data-name="Line 34" y1="7.254" x2="12.576" transform="translate(2941.569 -357.456)" fill="none" stroke="#000" stroke-linecap="round" stroke-linejoin="round" stroke-width="4"/>
      <line id="Line_35" data-name="Line 35" y1="7.254" x2="12.544" transform="translate(3047.213 -418.434)" fill="none" stroke="#000" stroke-linecap="round" stroke-linejoin="round" stroke-width="4"/>
      <line id="Line_36" data-name="Line 36" x1="7.254" y2="12.544" transform="translate(3027.034 -443.111)" fill="none" stroke="#000" stroke-linecap="round" stroke-linejoin="round" stroke-width="4"/>
      <line id="Line_37" data-name="Line 37" x1="7.254" y2="12.576" transform="translate(2966.056 -337.499)" fill="none" stroke="#000" stroke-linecap="round" stroke-linejoin="round" stroke-width="4"/>
      <line id="Line_38" data-name="Line 38" x1="12.576" y1="7.254" transform="translate(3046.706 -357.171)" fill="none" stroke="#000" stroke-linecap="round" stroke-linejoin="round" stroke-width="4"/>
      <line id="Line_39" data-name="Line 39" x1="12.544" y1="7.254" transform="translate(2941.094 -418.149)" fill="none" stroke="#000" stroke-linecap="round" stroke-linejoin="round" stroke-width="4"/>
    </g>
    <g id="plant">
      <line id="Line_17" data-name="Line 17" x2="67.979" transform="translate(2803.361 -121.967)" fill="none" stroke="#000" stroke-linecap="round" stroke-linejoin="round" stroke-width="4"/>
      <line id="Line_18" data-name="Line 18" x1="6.272" transform="translate(2883.03 -121.967)" fill="none" stroke="#000" stroke-linecap="round" stroke-linejoin="round" stroke-width="4"/>
      <line id="Line_19" data-name="Line 19" x2="102.096" transform="translate(2785.495 -204.708)" fill="none" stroke="#000" stroke-linecap="round" stroke-linejoin="round" stroke-width="4"/>
      <line id="Line_20" data-name="Line 20" x1="8.553" transform="translate(2899.248 -204.708)" fill="none" stroke="#000" stroke-linecap="round" stroke-linejoin="round" stroke-width="4"/>
      <line id="Line_21" data-name="Line 21" x2="88.031" transform="translate(2782.518 -223.999)" fill="none" stroke="#000" stroke-linecap="round" stroke-linejoin="round" stroke-width="4"/>
      <line id="Line_22" data-name="Line 22" x2="22.047" transform="translate(2869.187 -223.999)" fill="none" stroke="#000" stroke-linecap="round" stroke-linejoin="round" stroke-width="4"/>
      <line id="Line_23" data-name="Line 23" x2="7.824" transform="translate(2903.145 -223.936)" fill="none" stroke="#000" stroke-linecap="round" stroke-linejoin="round" stroke-width="4"/>
      <line id="Line_24" data-name="Line 24" y1="82.297" x2="13.336" transform="translate(2890.505 -204.265)" fill="none" stroke="#000" stroke-linecap="round" stroke-linejoin="round" stroke-width="4"/>
      <line id="Line_25" data-name="Line 25" x2="13.368" y2="82.297" transform="translate(2789.994 -204.265)" fill="none" stroke="#000" stroke-linecap="round" stroke-linejoin="round" stroke-width="4"/>
      <line id="Line_26" data-name="Line 26" x2="3.104" y2="19.133" transform="translate(2782.391 -223.841)" fill="none" stroke="#000" stroke-linecap="round" stroke-linejoin="round" stroke-width="4"/>
      <line id="Line_27" data-name="Line 27" x1="3.104" y2="19.133" transform="translate(2908.055 -223.841)" fill="none" stroke="#000" stroke-linecap="round" stroke-linejoin="round" stroke-width="4"/>
      <path id="Path_27" data-name="Path 27" d="M112.059,56.939a47.231,47.231,0,0,0-7.317-3.706,32.912,32.912,0,0,0-3.9-1.267c-1.33-.412-2.661-.76-4.023-1.045a71.277,71.277,0,0,0-8.331-.95,69.443,69.443,0,0,0-8.458.348A64.336,64.336,0,0,0,48.2,63.655a71.971,71.971,0,0,0-21.541,28.51,30.03,30.03,0,0,0-2.249,8.806,29.175,29.175,0,0,0,1.172,9.5,31.266,31.266,0,0,0,5.227,9.186c.665.7,1.33,1.394,2.059,2.091H55.483A58.792,58.792,0,0,0,62.23,117.7a17.929,17.929,0,0,0,4.466-3.833,9.5,9.5,0,0,0,2.344-4.055,102.191,102.191,0,0,1,8.585-16.6A105.487,105.487,0,0,1,90.9,76.579l4.371-4.34,4.942-4.245c1.774-1.3,3.611-2.788,5.544-4.308s4.086-2.788,6.335-4.53h0l.317-.317a1.33,1.33,0,0,0-.348-1.9Z" transform="translate(2815.097 -345.813)" fill="none" stroke="#000" stroke-linecap="round" stroke-miterlimit="10" stroke-width="4"/>
      <path id="Path_28" data-name="Path 28" d="M61.384,95.014a29.175,29.175,0,0,1-1.172-9.5,29.809,29.809,0,0,1,1.932-8.078A48.149,48.149,0,0,0,52.1,66.5a43.841,43.841,0,0,0-21.826-9.25c-2,0-3.9-.285-5.829-.253h-.317a40.581,40.581,0,0,0-5.227.6,27.11,27.11,0,0,0-2.756.729,26.579,26.579,0,0,0-2.693.855,35.8,35.8,0,0,0-5.163,2.6.919.919,0,0,0-.285,1.267,1.457,1.457,0,0,0,.285.285h0c1.521,1.2,2.946,2.217,4.308,3.168s2.6,2.091,3.833,2.946L19.791,72.4,22.8,75.279a70.673,70.673,0,0,1,9.091,11.436,67.094,67.094,0,0,1,5.892,11.372,6.779,6.779,0,0,0,1.616,2.788,12.481,12.481,0,0,0,3.168,2.629,40.067,40.067,0,0,0,4.625,2.788H62.714c.507-.475.95-.95,1.425-1.457a20.171,20.171,0,0,0,1.425-1.932,32.659,32.659,0,0,1-4.181-7.888Z" transform="translate(2779.294 -330.576)" fill="none" stroke="#000" stroke-linecap="round" stroke-miterlimit="10" stroke-width="4"/>
      <path id="Path_29" data-name="Path 29" d="M85.509,70.433A70.61,70.61,0,0,0,71.033,57.921,78.4,78.4,0,0,0,36.188,45.662c-3.168,0-6.335-.38-9.25-.317a68.362,68.362,0,0,0-9.091.855c-1.489.285-2.978.6-4.435.95s-2.851.665-4.245,1.14a63.041,63.041,0,0,0-8.014,3.485,1.14,1.14,0,0,0-.443,1.679.982.982,0,0,0,.348.317h0c2.439,1.584,4.72,2.914,6.874,4.118s4.15,2.724,6.082,3.9l5.417,3.865,4.815,3.96A97.883,97.883,0,0,1,36.917,82.281" transform="translate(2763.34 -355.855)" fill="none" stroke="#000" stroke-linecap="round" stroke-miterlimit="10" stroke-width="4"/>
      <path id="Path_30" data-name="Path 30" d="M30.3,116.887c0-35.764,30.854-64.717,68.93-64.717" transform="translate(2827.926 -341.044)" fill="none" stroke="#000" stroke-linecap="round" stroke-linejoin="round" stroke-width="4"/>
      <path id="Path_31" data-name="Path 31" d="M56.323,102.5C56.323,78.391,34.846,58.91,8.3,58.91" transform="translate(2780.236 -326.434)" fill="none" stroke="#000" stroke-linecap="round" stroke-miterlimit="10" stroke-width="4"/>
      <path id="Path_32" data-name="Path 32" d="M75.417,93.479C75.417,68.137,41.9,47.61.5,47.61" transform="translate(2763.328 -350.929)" fill="none" stroke="#000" stroke-linecap="round" stroke-miterlimit="10" stroke-width="4"/>
      <path id="Path_33" data-name="Path 33" d="M111.911,50.379a46.121,46.121,0,0,0-7.317-5.512,30.7,30.7,0,0,0-3.9-1.774c-1.33-.57-2.661-1.077-4.023-1.521a55.721,55.721,0,0,0-8.331-1.362,64.21,64.21,0,0,0-8.458.538A56.164,56.164,0,0,0,48.05,59.977a107.132,107.132,0,0,0-21.541,40.705,60.187,60.187,0,0,0-2.059,10.58c.634.824,1.267,1.679,1.869,2.566l.19-.507A71.971,71.971,0,0,1,48.05,84.812a64.336,64.336,0,0,1,31.994-13.59c2.883-.19,5.67-.412,8.458-.348a47.731,47.731,0,0,1,7.159.76l4.562-5.607c1.774-1.837,3.611-3.991,5.544-6.145s4.086-3.991,6.335-6.335h0a1.774,1.774,0,0,0,.317-.475,2.376,2.376,0,0,0-.507-2.693Z" transform="translate(2815.245 -366.97)" fill="none" stroke="#000" stroke-linecap="round" stroke-linejoin="round" stroke-width="4" opacity="0.97"/>
      <path id="Path_34" data-name="Path 34" d="M33.94,72.6a70.133,70.133,0,0,1,57.4-28.826" transform="translate(2835.817 -359.256)" fill="none" stroke="#000" stroke-linecap="round" stroke-linejoin="round" stroke-width="4"/>
    </g>
  </g>
</svg>
