<svg xmlns="http://www.w3.org/2000/svg" width="52.17" height="64.717" viewBox="0 0 52.17 64.717">
  <g id="mini_relax_icon" transform="translate(-201.438 -126.04)">
    <line id="Line_92" data-name="Line 92" x2="20.77" transform="translate(214.522 189.609)" fill="none" stroke="#000" stroke-linecap="round" stroke-linejoin="round" stroke-width="2"/>
    <line id="Line_93" data-name="Line 93" x1="1.914" transform="translate(238.868 189.609)" fill="none" stroke="#000" stroke-linecap="round" stroke-linejoin="round" stroke-width="2"/>
    <line id="Line_94" data-name="Line 94" x2="31.198" transform="translate(209.062 164.331)" fill="none" stroke="#000" stroke-linecap="round" stroke-linejoin="round" stroke-width="2"/>
    <line id="Line_95" data-name="Line 95" x1="2.613" transform="translate(243.822 164.331)" fill="none" stroke="#000" stroke-linecap="round" stroke-linejoin="round" stroke-width="2"/>
    <line id="Line_96" data-name="Line 96" x2="26.891" transform="translate(208.157 158.437)" fill="none" stroke="#000" stroke-linecap="round" stroke-linejoin="round" stroke-width="2"/>
    <line id="Line_97" data-name="Line 97" x2="6.732" transform="translate(234.638 158.437)" fill="none" stroke="#000" stroke-linecap="round" stroke-linejoin="round" stroke-width="2"/>
    <line id="Line_98" data-name="Line 98" x2="2.392" transform="translate(245.006 158.46)" fill="none" stroke="#000" stroke-linecap="round" stroke-linejoin="round" stroke-width="2"/>
    <line id="Line_99" data-name="Line 99" y1="25.141" x2="4.082" transform="translate(241.144 164.469)" fill="none" stroke="#000" stroke-linecap="round" stroke-linejoin="round" stroke-width="2"/>
    <line id="Line_100" data-name="Line 100" x2="4.082" y2="25.141" transform="translate(210.44 164.469)" fill="none" stroke="#000" stroke-linecap="round" stroke-linejoin="round" stroke-width="2"/>
    <line id="Line_101" data-name="Line 101" x2="0.949" y2="5.847" transform="translate(208.113 158.483)" fill="none" stroke="#000" stroke-linecap="round" stroke-linejoin="round" stroke-width="2"/>
    <line id="Line_102" data-name="Line 102" x1="0.949" y2="5.847" transform="translate(246.513 158.483)" fill="none" stroke="#000" stroke-linecap="round" stroke-linejoin="round" stroke-width="2"/>
    <path id="Path_103" data-name="Path 103" d="M253.116,138.926a15,15,0,0,0-2.239-1.173,11.692,11.692,0,0,0-1.191-.385c-.4-.12-.817-.228-1.233-.319a22.927,22.927,0,0,0-2.539-.291c-.854-.02-1.707.053-2.589.109a19.611,19.611,0,0,0-9.728,4.117,21.868,21.868,0,0,0-6.577,8.709,8.94,8.94,0,0,0-.685,2.69,8.585,8.585,0,0,0,.356,2.871,9.354,9.354,0,0,0,1.6,2.808c.2.218.406.432.627.641h6.91a18.317,18.317,0,0,0,2.063-1.238,5.681,5.681,0,0,0,1.367-1.173,2.955,2.955,0,0,0,.716-1.235,31.1,31.1,0,0,1,2.624-5.075,31.72,31.72,0,0,1,4.056-5.084l1.335-1.293,1.505-1.3c.541-.393,1.1-.85,1.7-1.313.6-.407,1.242-.857,1.924-1.383l.029-.022a.4.4,0,0,0-.029-.658Z" transform="translate(-0.767 -0.312)" fill="none" stroke="#000" stroke-miterlimit="10" stroke-width="2"/>
    <path id="Path_104" data-name="Path 104" d="M226.161,155.48a8.585,8.585,0,0,1-.356-2.871,8.7,8.7,0,0,1,.628-2.537,14.829,14.829,0,0,0-3.107-3.37,13.462,13.462,0,0,0-6.675-2.824c-.6-.039-1.191-.089-1.776-.075l-.145.012a14.336,14.336,0,0,0-1.6.188c-.286.062-.568.136-.846.22a7.565,7.565,0,0,0-.816.264,10.208,10.208,0,0,0-1.537.8.278.278,0,0,0-.081.383.283.283,0,0,0,.062.069l.019.015c.468.361.906.67,1.321.949.411.318.8.632,1.166.9l1.033.892.916.887a21.828,21.828,0,0,1,2.783,3.488,21.436,21.436,0,0,1,1.8,3.482,2.015,2.015,0,0,0,.491.848,3.921,3.921,0,0,0,.937.8,12.487,12.487,0,0,0,1.416.85h4.741c.151-.144.292-.29.43-.439a5.534,5.534,0,0,0,.436-.6A9.9,9.9,0,0,1,226.161,155.48Z" transform="translate(-0.237 -0.538)" fill="none" stroke="#000" stroke-miterlimit="10" stroke-width="2"/>
    <g id="Group_19" data-name="Group 19" transform="translate(202.443 132.001)">
      <path id="Path_105" data-name="Path 105" d="M228.419,139.838a21.683,21.683,0,0,0-4.426-3.832,23.923,23.923,0,0,0-10.64-3.739c-.965-.051-1.9-.117-2.832-.1-.951.066-1.87.116-2.777.264-.456.082-.906.181-1.349.29s-.874.2-1.3.349a17.782,17.782,0,0,0-2.449,1.066.331.331,0,0,0-.131.507.424.424,0,0,0,.1.091l.031.019c.747.478,1.443.887,2.105,1.255.655.422,1.268.837,1.859,1.194l1.646,1.181,1.461,1.174a30.6,30.6,0,0,1,3.831,3.866" transform="translate(-202.443 -132.166)" fill="none" stroke="#000" stroke-miterlimit="10" stroke-width="2"/>
    </g>
    <path id="Path_106" data-name="Path 106" d="M232.246,158.774c0-10.93,9.42-19.776,21.06-19.776" transform="translate(-0.957 -0.384)" fill="none" stroke="#000" stroke-linecap="round" stroke-linejoin="round" stroke-width="2"/>
    <path id="Path_107" data-name="Path 107" d="M224.912,159.06c0-7.366-6.558-13.325-14.665-13.325" transform="translate(-0.251 -0.6)" fill="none" stroke="#000" stroke-miterlimit="10" stroke-width="2"/>
    <path id="Path_108" data-name="Path 108" d="M225.337,148.452c0-7.743-10.24-14.009-22.895-14.009" transform="translate(0 -0.238)" fill="none" stroke="#000" stroke-miterlimit="10" stroke-width="2"/>
    <path id="Path_109" data-name="Path 109" d="M253.118,130.141a14.233,14.233,0,0,0-2.239-1.675,9.4,9.4,0,0,0-1.19-.55,12.844,12.844,0,0,0-1.233-.456,16.307,16.307,0,0,0-2.539-.417,20.881,20.881,0,0,0-2.589.157,17.22,17.22,0,0,0-9.728,5.881,32.614,32.614,0,0,0-6.577,12.44,18.581,18.581,0,0,0-.632,3.224c.2.257.393.518.575.789.019-.051.037-.1.057-.153a21.868,21.868,0,0,1,6.577-8.709,19.611,19.611,0,0,1,9.728-4.117c.882-.056,1.735-.13,2.589-.109.748.063,1.473.116,2.189.233l1.387-1.713c.541-.561,1.1-1.214,1.7-1.877.6-.581,1.242-1.223,1.924-1.975l.029-.031a.544.544,0,0,0,.091-.142A.739.739,0,0,0,253.118,130.141Z" transform="translate(-0.769)" fill="none" stroke="#000" stroke-linecap="round" stroke-linejoin="round" stroke-width="2" opacity="0.97"/>
    <path id="Path_110" data-name="Path 110" d="M235.886,139.411a21.42,21.42,0,0,1,17.537-8.815" transform="translate(-1.074 -0.114)" fill="none" stroke="#000" stroke-linecap="round" stroke-linejoin="round" stroke-width="2"/>
  </g>
</svg>
