<svg xmlns="http://www.w3.org/2000/svg" width="48" height="48" viewBox="0 0 48 48">
  <g id="settings_icon" transform="translate(5999 -18)" fill="none">
    <path d="M-5973.5,66h-2.5a3,3,0,0,1-3-3V60.578A18.823,18.823,0,0,1-5985.244,58l-1.6,1.6a2.98,2.98,0,0,1-2.121.878,2.982,2.982,0,0,1-2.121-.878l-1.768-1.768a2.981,2.981,0,0,1-.879-2.121,2.98,2.98,0,0,1,.879-2.121l1.656-1.658a18.835,18.835,0,0,1-2.38-5.937H-5996a3,3,0,0,1-3-3V40.5a3,3,0,0,1,3-3h2.536a18.882,18.882,0,0,1,2.46-5.744l-1.85-1.85a2.979,2.979,0,0,1-.879-2.121,2.979,2.979,0,0,1,.879-2.121l1.768-1.768a2.979,2.979,0,0,1,2.121-.878,2.981,2.981,0,0,1,2.121.878l1.907,1.908A18.854,18.854,0,0,1-5979,23.422V21a3,3,0,0,1,3-3h2.5a3,3,0,0,1,3,3v2.536a18.887,18.887,0,0,1,5.437,2.266l1.908-1.907a2.977,2.977,0,0,1,2.12-.878,2.98,2.98,0,0,1,2.122.879l1.768,1.768a2.981,2.981,0,0,1,.879,2.121,2.981,2.981,0,0,1-.879,2.121l-1.85,1.85a18.868,18.868,0,0,1,2.46,5.744H-5954a3,3,0,0,1,3,3V43a3,3,0,0,1-3,3h-2.422a18.86,18.86,0,0,1-2.381,5.938l1.656,1.657a2.98,2.98,0,0,1,.879,2.121,2.98,2.98,0,0,1-.879,2.121l-1.768,1.768a2.981,2.981,0,0,1-2.121.878,2.978,2.978,0,0,1-2.121-.878l-1.6-1.6a18.867,18.867,0,0,1-5.745,2.46V63A3,3,0,0,1-5973.5,66Zm-1.25-34a9.761,9.761,0,0,0-9.75,9.75,9.762,9.762,0,0,0,9.75,9.751A9.762,9.762,0,0,0-5965,41.75,9.761,9.761,0,0,0-5974.75,32Z" stroke="none"/>
    <path d="M -5973.5 64.00031280517578 C -5972.94873046875 64.00031280517578 -5972.50048828125 63.55179214477539 -5972.50048828125 63.00049209594727 L -5972.50048828125 60.46440505981445 L -5972.50048828125 58.89245223999023 L -5970.97314453125 58.52103424072266 C -5969.1474609375 58.07707214355469 -5967.4189453125 57.3369140625 -5965.8359375 56.32111358642578 L -5964.48046875 55.45116424560547 L -5963.34130859375 56.59025192260742 L -5961.74072265625 58.19124221801758 C -5961.5498046875 58.38226318359375 -5961.30615234375 58.48322296142578 -5961.03515625 58.48322296142578 C -5960.76416015625 58.48322296142578 -5960.51953125 58.38204193115234 -5960.32861328125 58.19080352783203 L -5958.560546875 56.42220306396484 C -5958.369140625 56.23047256469727 -5958.267578125 55.98610305786133 -5958.267578125 55.71552276611328 C -5958.267578125 55.4449348449707 -5958.369140625 55.20055389404297 -5958.56103515625 55.00852203369141 L -5960.21728515625 53.35166168212891 L -5961.3330078125 52.2353630065918 L -5960.5068359375 50.89058303833008 C -5959.49658203125 49.24672317504883 -5958.7802734375 47.46027374267578 -5958.37744140625 45.58085250854492 L -5958.03857421875 43.99982452392578 L -5956.421875 43.99982452392578 L -5954 43.99982452392578 C -5953.44873046875 43.99982452392578 -5953.00048828125 43.55165481567383 -5953.00048828125 43.00077438354492 L -5953.00048828125 40.50005340576172 C -5953.00048828125 39.94875335693359 -5953.44873046875 39.500244140625 -5954 39.500244140625 L -5956.5361328125 39.500244140625 L -5958.1083984375 39.500244140625 L -5958.4794921875 37.97231292724609 C -5958.92236328125 36.14963150024414 -5959.66259765625 34.42137145996094 -5960.6796875 32.83554458618164 L -5961.548828125 31.48016357421875 L -5960.41015625 30.34159278869629 L -5958.560546875 28.49200248718262 C -5958.369140625 28.30027389526367 -5958.267578125 28.05577278137207 -5958.267578125 27.78493309020996 C -5958.267578125 27.51410293579102 -5958.369140625 27.26960372924805 -5958.560546875 27.07785415649414 L -5960.3291015625 25.30966377258301 C -5960.52001953125 25.11817359924316 -5960.7646484375 25.01695251464844 -5961.03564453125 25.01695251464844 C -5961.30615234375 25.01695251464844 -5961.55029296875 25.1179141998291 -5961.74169921875 25.30991363525391 L -5963.6494140625 27.21669387817383 L -5964.765625 28.33234405517578 L -5966.1103515625 27.50620269775391 C -5967.62109375 26.57821273803711 -5969.2568359375 25.89643287658691 -5970.97265625 25.47980308532715 L -5972.50048828125 25.1087532043457 L -5972.50048828125 23.53628349304199 L -5972.50048828125 21.00017356872559 C -5972.50048828125 20.44888305664063 -5972.94873046875 20.00037384033203 -5973.5 20.00037384033203 L -5976 20.00037384033203 C -5976.5517578125 20.00037384033203 -5977.0009765625 20.44888305664063 -5977.0009765625 21.00017356872559 L -5977.0009765625 23.42185401916504 L -5977.0009765625 25.03824424743652 L -5978.58154296875 25.37734413146973 C -5980.46337890625 25.7811336517334 -5982.2490234375 26.49746322631836 -5983.8896484375 27.50644302368164 L -5985.23486328125 28.33392333984375 L -5986.35205078125 27.21698379516602 L -5988.25927734375 25.30943298339844 C -5988.45068359375 25.11802291870117 -5988.69482421875 25.01685333251953 -5988.9658203125 25.01685333251953 C -5989.23681640625 25.01685333251953 -5989.48095703125 25.11803245544434 -5989.67236328125 25.30928421020508 L -5991.44091796875 27.07830238342285 C -5991.63232421875 27.26963424682617 -5991.7333984375 27.51398277282715 -5991.7333984375 27.78493309020996 C -5991.7333984375 28.05589294433594 -5991.63232421875 28.30024337768555 -5991.4404296875 28.49202346801758 L -5989.5908203125 30.34159278869629 L -5988.4521484375 31.48030281066895 L -5989.3212890625 32.83575439453125 C -5990.33740234375 34.41900253295898 -5991.07763671875 36.14742279052734 -5991.521484375 37.97301483154297 L -5991.89306640625 39.500244140625 L -5993.46484375 39.500244140625 L -5996.0009765625 39.500244140625 C -5996.55224609375 39.500244140625 -5997.00048828125 39.94875335693359 -5997.00048828125 40.50005340576172 L -5997.00048828125 43.00077438354492 C -5997.00048828125 43.55165481567383 -5996.55224609375 43.99982452392578 -5996.0009765625 43.99982452392578 L -5993.578125 43.99983215332031 L -5991.9609375 43.99984359741211 L -5991.62255859375 45.58121490478516 C -5991.2197265625 47.46158218383789 -5990.50390625 49.24753189086914 -5989.49462890625 50.88946151733398 L -5988.66796875 52.23404312133789 L -5989.78369140625 53.35059356689453 L -5991.4404296875 55.0089225769043 C -5991.63232421875 55.2005615234375 -5991.7333984375 55.44489288330078 -5991.7333984375 55.71551513671875 C -5991.7333984375 55.98599243164063 -5991.6318359375 56.23050308227539 -5991.43994140625 56.42252349853516 L -5989.67333984375 58.19002151489258 C -5989.4814453125 58.38183212280273 -5989.23681640625 58.48322296142578 -5988.9658203125 58.48322296142578 C -5988.69482421875 58.48322296142578 -5988.4501953125 58.38205337524414 -5988.2587890625 58.19043350219727 L -5986.658203125 56.59003448486328 L -5985.51953125 55.45124435424805 L -5984.1640625 56.32115173339844 C -5982.44873046875 57.42207336425781 -5980.5703125 58.19634246826172 -5978.58203125 58.62247467041016 L -5977.0009765625 58.96124267578125 L -5977.0009765625 60.57807159423828 L -5977.0009765625 63.00049209594727 C -5977.0009765625 63.55179214477539 -5976.5517578125 64.00031280517578 -5976 64.00031280517578 L -5973.5 64.00031280517578 M -5974.75 29.99972343444824 C -5968.27099609375 29.99972343444824 -5963 35.27072143554688 -5963 41.74966430664063 C -5963 48.22902297973633 -5968.27099609375 53.50036239624023 -5974.75 53.50036239624023 C -5981.22900390625 53.50036239624023 -5986.50048828125 48.22902297973633 -5986.50048828125 41.74966430664063 C -5986.50048828125 35.27072143554688 -5981.22900390625 29.99972343444824 -5974.75 29.99972343444824 M -5973.5 66.00031280517578 L -5976 66.00031280517578 C -5977.65478515625 66.00031280517578 -5979.0009765625 64.65460205078125 -5979.0009765625 63.00049209594727 L -5979.0009765625 60.57807159423828 C -5981.2255859375 60.10136413574219 -5983.326171875 59.23526382446289 -5985.244140625 58.00433349609375 L -5986.8447265625 59.60473251342773 C -5987.4111328125 60.17123413085938 -5988.16455078125 60.48322296142578 -5988.9658203125 60.48322296142578 C -5989.7666015625 60.48322296142578 -5990.52001953125 60.17123413085938 -5991.0869140625 59.60473251342773 L -5992.8544921875 57.83645248413086 C -5993.4208984375 57.26975250244141 -5993.7333984375 56.51652145385742 -5993.7333984375 55.71551513671875 C -5993.7333984375 54.91410446166992 -5993.4208984375 54.16087341308594 -5992.8544921875 53.59457397460938 L -5991.1982421875 51.93696212768555 C -5992.3271484375 50.10081481933594 -5993.1279296875 48.10306167602539 -5993.578125 45.99983215332031 L -5996.0009765625 45.99982452392578 C -5997.65478515625 45.99982452392578 -5999.00048828125 44.65446472167969 -5999.00048828125 43.00077438354492 L -5999.00048828125 40.50005340576172 C -5999.00048828125 38.84595489501953 -5997.65478515625 37.500244140625 -5996.0009765625 37.500244140625 L -5993.46484375 37.500244140625 C -5992.96826171875 35.45903396606445 -5992.140625 33.52620315551758 -5991.0048828125 31.75582313537598 L -5992.8544921875 29.90625381469727 C -5993.42138671875 29.3397331237793 -5993.7333984375 28.58635330200195 -5993.7333984375 27.78493309020996 C -5993.7333984375 26.98352241516113 -5993.42138671875 26.23015403747559 -5992.8544921875 25.66362380981445 L -5991.0869140625 23.89535331726074 C -5990.5205078125 23.32884407043457 -5989.767578125 23.01685333251953 -5988.9658203125 23.01685333251953 C -5988.1650390625 23.01685333251953 -5987.4111328125 23.32884407043457 -5986.8447265625 23.89535331726074 L -5984.9375 25.80288314819336 C -5983.1025390625 24.67426300048828 -5981.1044921875 23.87319374084473 -5979.0009765625 23.42185401916504 L -5979.0009765625 21.00017356872559 C -5979.0009765625 19.34607315063477 -5977.65478515625 18.00037384033203 -5976 18.00037384033203 L -5973.5 18.00037384033203 C -5971.84619140625 18.00037384033203 -5970.50048828125 19.34607315063477 -5970.50048828125 21.00017356872559 L -5970.50048828125 23.53628349304199 C -5968.58154296875 24.00225257873535 -5966.751953125 24.7647533416748 -5965.0634765625 25.80213356018066 L -5963.15576171875 23.89535331726074 C -5962.58984375 23.32890319824219 -5961.8369140625 23.01695251464844 -5961.03564453125 23.01695251464844 C -5960.234375 23.01695251464844 -5959.48046875 23.32917404174805 -5958.9140625 23.89610290527344 L -5957.146484375 25.66362380981445 C -5956.580078125 26.23000335693359 -5956.267578125 26.98338317871094 -5956.267578125 27.78493309020996 C -5956.267578125 28.58650398254395 -5956.580078125 29.33987426757813 -5957.146484375 29.90625381469727 L -5958.99609375 31.75582313537598 C -5957.85888671875 33.52895355224609 -5957.03125 35.46186447143555 -5956.5361328125 37.500244140625 L -5954 37.500244140625 C -5952.345703125 37.500244140625 -5951.00048828125 38.84595489501953 -5951.00048828125 40.50005340576172 L -5951.00048828125 43.00077438354492 C -5951.00048828125 44.65446472167969 -5952.345703125 45.99982452392578 -5954 45.99982452392578 L -5956.421875 45.99982452392578 C -5956.8720703125 48.10115432739258 -5957.6728515625 50.09907150268555 -5958.802734375 51.93771362304688 L -5957.146484375 53.59457397460938 C -5956.580078125 54.16096496582031 -5956.267578125 54.91420364379883 -5956.267578125 55.71552276611328 C -5956.267578125 56.51684188842773 -5956.580078125 57.27007293701172 -5957.146484375 57.83645248413086 L -5958.9140625 59.60473251342773 C -5959.48046875 60.17123413085938 -5960.234375 60.48322296142578 -5961.03515625 60.48322296142578 C -5961.83642578125 60.48322296142578 -5962.58984375 60.17123413085938 -5963.15576171875 59.60473251342773 L -5964.755859375 58.00433349609375 C -5966.52587890625 59.14020156860352 -5968.45849609375 59.96786499023438 -5970.50048828125 60.46440505981445 L -5970.50048828125 63.00049209594727 C -5970.50048828125 64.65460205078125 -5971.84619140625 66.00031280517578 -5973.5 66.00031280517578 Z M -5974.75 31.99972343444824 C -5980.12646484375 31.99972343444824 -5984.50048828125 36.3735237121582 -5984.50048828125 41.74966430664063 C -5984.50048828125 47.12621307373047 -5980.12646484375 51.50036239624023 -5974.75 51.50036239624023 C -5969.3740234375 51.50036239624023 -5965 47.12621307373047 -5965 41.74966430664063 C -5965 36.3735237121582 -5969.3740234375 31.99972343444824 -5974.75 31.99972343444824 Z" stroke="none" fill="#000"/>
  </g>
</svg>
