<svg xmlns="http://www.w3.org/2000/svg" width="60" height="60" viewBox="0 0 60 60">
  <g id="solid_glass_icon" transform="translate(-4843 160)">
    <rect id="Rectangle_110" data-name="Rectangle 110" width="60" height="60" transform="translate(4843 -160)" fill="none"/>
    <g id="Layer_2" data-name="Layer 2" transform="translate(4855.513 -154.5)">
      <g id="Layer_1" data-name="Layer 1" transform="translate(0.487 0.5)">
        <line id="Line_168" data-name="Line 168" y2="48" transform="translate(17.126)" fill="none" stroke="#000" stroke-linecap="round" stroke-miterlimit="10" stroke-width="2" opacity="0.95"/>
        <path id="Path_256" data-name="Path 256" d="M19.7,3.34H7.54V37.528H19.7a4.863,4.863,0,0,0,4.863-4.863V8.349A4.863,4.863,0,0,0,19.7,3.34Z" transform="translate(9.611 3.566)" fill="none" stroke="#000" stroke-linecap="round" stroke-miterlimit="10" stroke-width="2" opacity="0.95"/>
        <line id="Line_169" data-name="Line 169" x1="4.571" transform="translate(5.552 6.906)" fill="#1d1d1b" stroke="#000" stroke-linecap="round" stroke-linejoin="round" stroke-width="2"/>
        <path id="Path_257" data-name="Path 257" d="M1.9,4A5.666,5.666,0,0,0,.543,8.547" transform="translate(-0.487 4.511)" fill="none" stroke="#000" stroke-linecap="round" stroke-linejoin="round" stroke-width="2"/>
        <line id="Line_170" data-name="Line 170" y2="4.547" transform="translate(0.056 17.191)" fill="#1d1d1b" stroke="#000" stroke-linecap="round" stroke-linejoin="round" stroke-width="2"/>
        <line id="Line_171" data-name="Line 171" y2="4.547" transform="translate(0.056 26.31)" fill="#1d1d1b" stroke="#000" stroke-linecap="round" stroke-linejoin="round" stroke-width="2"/>
        <path id="Path_258" data-name="Path 258" d="M.532,15.06a5.228,5.228,0,0,0,1.386,4.207" transform="translate(-0.475 20.344)" fill="none" stroke="#000" stroke-linecap="round" stroke-linejoin="round" stroke-width="2"/>
        <line id="Line_172" data-name="Line 172" x2="4.547" transform="translate(5.601 41.094)" fill="#1d1d1b" stroke="#000" stroke-linecap="round" stroke-linejoin="round" stroke-width="2"/>
        <line id="Line_173" data-name="Line 173" x2="2.432" transform="translate(14.695 41.094)" fill="#1d1d1b" stroke="#000" stroke-linecap="round" stroke-linejoin="round" stroke-width="2"/>
        <line id="Line_174" data-name="Line 174" x2="2.432" transform="translate(14.695 6.906)" fill="#1d1d1b" stroke="#000" stroke-linecap="round" stroke-linejoin="round" stroke-width="2"/>
      </g>
    </g>
  </g>
</svg>
