<svg xmlns="http://www.w3.org/2000/svg" width="51.911" height="33.18" viewBox="0 0 51.911 33.18">
  <g id="video_off_icon" transform="translate(-75.425 -358.565)">
    <path id="Path_143" data-name="Path 143" d="M78.711,358.565" transform="translate(2.827)" fill="none" stroke="#000" stroke-linecap="round" stroke-linejoin="round" stroke-width="2"/>
    <path id="Path_144" data-name="Path 144" d="M78.212,359.4" transform="translate(2.09 1.233)" fill="none" stroke="#000" stroke-linecap="round" stroke-linejoin="round" stroke-width="2"/>
    <g id="Group_36" data-name="Group 36" transform="translate(76.797 361.426)">
      <path id="Path_145" data-name="Path 145" d="M97.2,369.622" transform="translate(-46.662 -345.097)" fill="none" stroke="#000" stroke-linecap="round" stroke-linejoin="round" stroke-width="2"/>
      <path id="Path_146" data-name="Path 146" d="M93.531,375.311l7.01,4.18V362.273l-7.044,4.2" transform="translate(-52.133 -355.95)" fill="none" stroke="#000" stroke-linecap="round" stroke-linejoin="round" stroke-width="2"/>
      <line id="Line_140" data-name="Line 140" x2="48.408" y2="28.948" fill="none" stroke="#000" stroke-linecap="round" stroke-linejoin="round" stroke-width="2"/>
      <path id="Path_147" data-name="Path 147" d="M96.7,370.457" transform="translate(-47.401 -343.864)" fill="none" stroke="#000" stroke-linecap="round" stroke-linejoin="round" stroke-width="2"/>
      <path id="Path_148" data-name="Path 148" d="M108.452,378.651v2.868a3.07,3.07,0,0,1-3.061,3.061h-22.3a3.07,3.07,0,0,1-3.061-3.061V361.655" transform="translate(-72.017 -356.863)" fill="none" stroke="#000" stroke-linecap="round" stroke-linejoin="round" stroke-width="2"/>
      <path id="Path_149" data-name="Path 149" d="M82.092,360.587H102.35a3.07,3.07,0,0,1,3.061,3.061v10.883" transform="translate(-68.977 -358.44)" fill="none" stroke="#000" stroke-linecap="round" stroke-linejoin="round" stroke-width="2"/>
      <path id="Path_150" data-name="Path 150" d="M80.033,361.655" transform="translate(-72.017 -356.863)" fill="none" stroke="#000" stroke-linecap="round" stroke-linejoin="round" stroke-width="2"/>
    </g>
  </g>
</svg>
